<svg xmlns="http://www.w3.org/2000/svg" viewBox="0 0 642.76 236.4"><defs><style>.cls-1{fill:#7758a5;}.cls-2{fill:#6f5199;}.cls-3{fill:#503770;}.cls-4{fill:#806595;}.cls-5{fill:#45305a;}.cls-6{fill:#5c4180;}.cls-7{fill:#231f20;}.cls-8{fill:none;stroke:#231f20;stroke-miterlimit:10;stroke-width:3px;}</style></defs><g id="Layer_2" data-name="Layer 2"><g id="Layer_1-2" data-name="Layer 1"><polygon class="cls-1" points="204.73 177.3 204.73 59.1 102.36 0 0 59.1 0 177.3 102.36 236.4 204.73 177.3"/><polygon class="cls-1" points="0 59.1 63.86 129.23 0 177.3 0 59.1"/><polygon class="cls-2" points="63.86 129.23 102.36 0 183.01 83.21 63.86 129.23"/><polygon class="cls-3" points="63.86 129.23 102.36 236.4 0 177.3 63.86 129.23"/><polygon class="cls-4" points="0 59.1 102.36 0 63.86 129.23 0 59.1"/><polygon class="cls-3" points="102.36 0 183.01 83.21 204.73 59.1 102.36 0"/><polygon class="cls-5" points="183.01 83.21 204.73 59.1 204.73 177.3 183.01 83.21"/><polygon class="cls-2" points="183.01 83.21 149.47 158.6 204.73 177.3 183.01 83.21"/><polygon class="cls-5" points="63.86 129.02 183.01 83.21 150.48 158.6 63.86 129.02"/><polygon class="cls-6" points="63.86 129.23 102.36 236.4 149.47 158.6 63.86 129.23"/><polygon class="cls-4" points="102.36 236.4 149.47 158.6 204.73 177.3 102.36 236.4"/><path class="cls-7" d="M242.15,89.26h-2.23a.7.7,0,0,1-.54-.21,1,1,0,0,1,0-1.18.71.71,0,0,1,.54-.22h12.44V155.2h2.45a.67.67,0,0,1,.54.22.94.94,0,0,1,.2.65.75.75,0,0,1-.2.52.69.69,0,0,1-.55.22H239.92c-.38-.29-.57-.56-.57-.8a1,1,0,0,1,.57-.81h2.23Zm-.8-23.39a6.94,6.94,0,0,1,1.77-4.77,5.38,5.38,0,0,1,4.16-2,5.61,5.61,0,0,1,4.33,2,6.91,6.91,0,0,1,1.77,4.8,7,7,0,0,1-1.77,4.83,5.51,5.51,0,0,1-4.27,2,5.44,5.44,0,0,1-4.22-2A7,7,0,0,1,241.35,65.87Z"/><path class="cls-7" d="M306.11,155.2l1.37.12a.79.79,0,0,1,.28.69c0,.24-.19.51-.57.8H293.67c-.38-.29-.57-.56-.57-.8s.19-.52.57-.81h2.23V89.26h-2.23c-.38-.24-.57-.49-.57-.74a1.17,1.17,0,0,1,.57-.87h12.44v5.16a15.53,15.53,0,0,1,3.76-4.7,7.55,7.55,0,0,1,4.51-1.23,6.92,6.92,0,0,1,4.76,1.45c1.08,1,2,2.78,2.77,5.45a15.44,15.44,0,0,1,3.53-5.48,7.09,7.09,0,0,1,4.68-1.42c2.7,0,4.68.72,6,2.16A9,9,0,0,1,338,95.2v60h1.88a.77.77,0,0,1,.8.81l-.17.55a.92.92,0,0,1-.63.25H326.59c-.39-.29-.58-.56-.58-.8s.19-.52.57-.81h1.2V92.81a2.85,2.85,0,0,0-.48-1.74,1.34,1.34,0,0,0-1-.65q-1.25,0-2.43,2.13c-1.28,2.28-1.92,5.47-1.92,9.55v53.1h1.25l.34.18a1.06,1.06,0,0,1,.17.63,1.17,1.17,0,0,1-.51.8H310.33a.93.93,0,0,1,0-1.61h1.54V93.78a4.42,4.42,0,0,0-.52-2.48,1.45,1.45,0,0,0-1.19-.75c-.77,0-1.47.54-2.12,1.62a14.41,14.41,0,0,0-1.93,7.35Z"/><path class="cls-7" d="M382.62,94.49a9.1,9.1,0,0,1,1.54-.49,6.28,6.28,0,0,1,1.37-.16,4.84,4.84,0,0,1,3.85,1.87,8.5,8.5,0,0,1,0,9.86,5.34,5.34,0,0,1-4.28,1.87,5.13,5.13,0,0,1-4.22-1.9,8.8,8.8,0,0,1-1.54-5.64A12.61,12.61,0,0,1,383,90.62q3.71-3.74,10.55-3.74,6.15,0,8.87,2.61a8.88,8.88,0,0,1,2.71,6.67v55.69a2.62,2.62,0,0,0,.45,1.58,1.28,1.28,0,0,0,1,.61q1.43,0,2.91-3.42c.27-.68.53-1,.8-1l.68.71c0,1.51-.85,3.09-2.56,4.77a8.48,8.48,0,0,1-6.16,2.51,6.61,6.61,0,0,1-4.77-1.61q-1.68-1.6-2.53-5.67c-1.75,2.92-3.28,4.87-4.6,5.83a7.59,7.59,0,0,1-4.64,1.45,6.41,6.41,0,0,1-5-1.9,7.06,7.06,0,0,1-1.74-5v-24.3c0-2.62.5-4.56,1.51-5.8s4-2.79,8.92-4.64a40.75,40.75,0,0,0,5.54-2.58V94.81a6.85,6.85,0,0,0-1.34-4.51,4.35,4.35,0,0,0-3.51-1.62Q385.07,88.68,382.62,94.49Zm12.32,20.88c-2.44,1.07-4,2.15-4.71,3.22a9.71,9.71,0,0,0-1.05,5.16V151a3.75,3.75,0,0,0,.42,2,1.25,1.25,0,0,0,1.06.64c.61,0,1.29-.73,2-2.19a20.16,20.16,0,0,0,2.23-9.8Z"/><path class="cls-7" d="M456.94,142.57a22.31,22.31,0,0,1-5.06-8.7q-2.22-7.1-2.22-18.37,0-16.12,4.57-23.34,3.31-5.28,8.68-5.28a8.73,8.73,0,0,1,6.23,2.71A13.79,13.79,0,0,1,472,85a4.94,4.94,0,0,1,3.47-1.51,3.92,3.92,0,0,1,3.21,1.52A6.7,6.7,0,0,1,480,89.36a6.21,6.21,0,0,1-.86,3.6,2.41,2.41,0,0,1-1.94,1.2,2.36,2.36,0,0,1-1.94-.93,4.37,4.37,0,0,1-.74-2.74v-.71c0-.39.06-.71.06-1a2.56,2.56,0,0,0-.31-1.48,1.08,1.08,0,0,0-.88-.39,2.15,2.15,0,0,0-1.59,1,11.23,11.23,0,0,0-1.53,3.15q5.38,7.8,5.39,25.3,0,15.27-4.63,22.6-3.44,5.4-8.29,5.41c-.49,0-1.12,0-1.89-.07-.45,0-1.66-.06-3.6-.06-2.32,0-4,.38-4.94,1.16a3.11,3.11,0,0,0-1.46,2.25,2.07,2.07,0,0,0,.8,1.68,5.81,5.81,0,0,0,3.6.9h9.09q6.69,0,9.74,3.42t3.06,10.5q0,7.74-4,12.15t-11.27,4.42q-7.29,0-11-3.45a10.45,10.45,0,0,1-3.76-7.9,11.7,11.7,0,0,1,1.17-5.18,14.55,14.55,0,0,1,3.45-4.48,9.06,9.06,0,0,1-2.77-3.26,9.66,9.66,0,0,1-.94-4.35q0-4.26,2-6.54T456.94,142.57Zm-4.14,18.17a12.62,12.62,0,0,0-2.27,3.42,8.58,8.58,0,0,0-.76,3.48c0,2.23,1.08,4.33,3.25,6.28s5.25,2.94,9.27,2.94a14.57,14.57,0,0,0,10-3.42,8.41,8.41,0,0,0,2.9-6.32,4.8,4.8,0,0,0-1.6-4q-2.16-1.68-8.72-1.68h-2.34A57.78,57.78,0,0,1,452.8,160.74Zm12.6-67.35c0-2.06-.24-3.44-.72-4.13a2.36,2.36,0,0,0-2.05-1,2.46,2.46,0,0,0-2.07,1.13,7.27,7.27,0,0,0-.81,4v42.86q0,3.81,1,5.41a2.28,2.28,0,0,0,2,1.16,2.18,2.18,0,0,0,1.87-1,6.6,6.6,0,0,0,.72-3.61Z"/><path class="cls-7" d="M527.42,122.46v24q0,5.61,1.14,7.42a3.06,3.06,0,0,0,2.8,1.35q3.2,0,5.7-4.06,4.17-6.84,4.45-18.63a19.18,19.18,0,0,1,.31-4.38.81.81,0,0,1,.72-.52.69.69,0,0,1,.62.39,6.1,6.1,0,0,1,.29,2.45q0,11.48-3.57,19.3t-9.61,7.83q-5.64,0-9.35-6t-3.71-26.14V116q0-15.4,5-23.4,3.6-5.67,8.67-5.67,6,0,9.33,7.28t3.28,17.73v10.57Zm5.88-1.74V93.26a7.2,7.2,0,0,0-.91-4,2.06,2.06,0,0,0-1.86-1,2.73,2.73,0,0,0-2.18,1.22,6.17,6.17,0,0,0-.93,3.74v27.46Z"/><path class="cls-7" d="M585.05,89.26H582.6l-.34-.12a1.12,1.12,0,0,1-.17-.68,1.17,1.17,0,0,1,.51-.81h12.49v5.29A14.44,14.44,0,0,1,599,88.2a8.09,8.09,0,0,1,4.67-1.32q3.66,0,5.19,2.06,2.24,3,2.23,8.52V155.2H613a.73.73,0,0,1,.56.22.84.84,0,0,1,.2.59.83.83,0,0,1-.2.58.7.7,0,0,1-.54.22H599.83a.63.63,0,0,1-.49-.22.83.83,0,0,1-.2-.58.89.89,0,0,1,.19-.59.6.6,0,0,1,.47-.22h1.11V94.81a5.38,5.38,0,0,0-.45-2.68,1.42,1.42,0,0,0-1.25-.67,3,3,0,0,0-2.54,1.87q-1.57,2.78-1.58,9.09V155.2h1.43q.57.44.57.81c0,.24-.19.51-.57.8H582.6c-.38-.29-.57-.56-.57-.8s.19-.52.57-.81h2.45Z"/><polyline class="cls-8" points="233.78 198.24 641.26 198.24 641.26 46.23"/></g></g></svg>